<svg xmlns="http://www.w3.org/2000/svg" width="25.818" height="19.363" viewBox="0 0 25.818 19.363"><g transform="translate(0 -64.008)"><g transform="translate(9.709 70.489)"><path d="M198.792,192.7a.538.538,0,0,0-.761.761,3.227,3.227,0,1,1-4.563,4.563.538.538,0,0,0-.761.761,4.3,4.3,0,1,0,6.084-6.084Z" transform="translate(-192.55 -192.542)" fill="#888"/></g><g transform="translate(8.606 69.386)"><path d="M175.721,170.733a4.26,4.26,0,0,0-5.053,4.229,4.211,4.211,0,0,0,.075.75.539.539,0,0,0,.528.444.477.477,0,0,0,.095-.009.538.538,0,0,0,.436-.623,3.118,3.118,0,0,1-.058-.563,3.189,3.189,0,0,1,3.79-3.17.537.537,0,1,0,.187-1.059Z" transform="translate(-170.668 -170.659)" fill="#888"/></g><g transform="translate(6.728 67.661)"><path d="M152.4,142.141a26.13,26.13,0,0,0-7.045-5.62.538.538,0,1,0-.494.956,25.277,25.277,0,0,1,6.406,5.011c-1.282,1.389-6.329,6.454-11.648,6.454a12.4,12.4,0,0,1-5.409-1.3.537.537,0,1,0-.467.968,13.451,13.451,0,0,0,5.876,1.4c6.628,0,12.533-6.889,12.782-7.183A.537.537,0,0,0,152.4,142.141Z" transform="translate(-133.435 -136.461)" fill="#888"/></g><g transform="translate(0 66.159)"><path d="M16.438,107.279a11.107,11.107,0,0,0-3.53-.62c-6.628,0-12.533,6.889-12.782,7.183a.538.538,0,0,0-.03.655,19.969,19.969,0,0,0,4.934,4.678.534.534,0,0,0,.744-.152.536.536,0,0,0-.151-.744,19.671,19.671,0,0,1-4.392-4.061c1.238-1.345,6.318-6.483,11.676-6.483a10.069,10.069,0,0,1,3.186.563.531.531,0,0,0,.681-.338A.537.537,0,0,0,16.438,107.279Z" transform="translate(0 -106.659)" fill="#888"/></g><g transform="translate(3.227 64.008)"><path d="M83.2,64.165a.538.538,0,0,0-.761,0L64.153,82.453a.538.538,0,0,0,.761.761L83.2,64.926A.538.538,0,0,0,83.2,64.165Z" transform="translate(-63.996 -64.008)" fill="#888"/></g></g></svg>